Land_normalized_pl06_filtered_grf
version=1
nRows=22
nColumns=37
inDegrees=yes
endheader
time		1_ground_force_vx		1_ground_force_vy		1_ground_force_vz		1_ground_force_px		1_ground_force_py		1_ground_force_pz		1_ground_torque_x		1_ground_torque_y		1_ground_torque_z		2_ground_force_vx		2_ground_force_vy		2_ground_force_vz		2_ground_force_px		2_ground_force_py		2_ground_force_pz		2_ground_torque_x		2_ground_torque_y		2_ground_torque_z		3_ground_force_vx		3_ground_force_vy		3_ground_force_vz		3_ground_force_px		3_ground_force_py		3_ground_force_pz		3_ground_torque_x		3_ground_torque_y		3_ground_torque_z		4_ground_force_vx		4_ground_force_vy		4_ground_force_vz		4_ground_force_px		4_ground_force_py		4_ground_force_pz		4_ground_torque_x		4_ground_torque_y		4_ground_torque_z		
1.149500		-38.225767		969.738469		175.591355		0.139780		0.000000		0.239214		-0.850451		21.574841		3.906574		52.562675		1026.939640		290.596667		-0.173070		0.000000		0.239481		2.359901		46.106409		13.046890		-0.346628		-0.426588		-1.438737		0.413314		1.262879		1.873874		0.042298		-0.002548		0.034596		-1.593008		-1.832757		-2.285656		-0.353423		1.256034		1.901289		0.033963		-0.023558		0.046576		
1.152227		-36.280410		969.822835		169.513342		0.138719		0.000000		0.241665		-0.796995		21.304597		3.723801		52.615640		1057.105920		278.805429		-0.170479		0.000000		0.243022		2.243769		45.079162		11.889782		-0.460731		-0.423819		-1.501202		0.413319		1.262893		1.873935		0.042313		-0.003990		0.036961		-1.568620		-1.811800		-2.383110		-0.353432		1.256056		1.901385		0.032385		-0.020705		0.045335		
1.154955		-34.462546		969.129634		164.092750		0.137661		0.000000		0.243996		-0.746916		21.004185		3.556427		52.644557		1089.236546		265.369042		-0.167914		0.000000		0.246724		2.114312		43.745734		10.657860		-0.552850		-0.428762		-1.559738		0.413325		1.262906		1.873996		0.042113		-0.005182		0.039050		-1.548537		-1.789784		-2.489942		-0.353444		1.256074		1.901480		0.030635		-0.017750		0.044249		
1.157682		-32.642097		967.615555		159.434085		0.136605		0.000000		0.246196		-0.698191		20.696488		3.410170		52.819641		1121.563336		251.062199		-0.165535		0.000000		0.250431		1.987148		42.194287		9.445620		-0.610747		-0.443027		-1.612429		0.413328		1.262916		1.874058		0.041651		-0.006184		0.040673		-1.539193		-1.767289		-2.602882		-0.353457		1.256089		1.901574		0.028934		-0.014846		0.043413		
1.160409		-30.704127		965.247887		155.592465		0.135549		0.000000		0.248258		-0.648979		20.401929		3.288678		53.334755		1152.207919		236.805055		-0.163458		0.000000		0.253998		1.877677		40.563911		8.337042		-0.625706		-0.467048		-1.657613		0.413328		1.262925		1.874120		0.040912		-0.007045		0.041699		-1.544762		-1.745274		-2.715930		-0.353470		1.256101		1.901664		0.027482		-0.012153		0.042851		
1.163136		-28.561459		961.978085		152.592619		0.134492		0.000000		0.250173		-0.597859		20.136376		3.194111		54.370880		1179.348987		223.540235		-0.161747		0.000000		0.257307		1.798736		39.016125		7.395546		-0.592732		-0.499927		-1.693812		0.413325		1.262932		1.874181		0.039909		-0.007788		0.042056		-1.566843		-1.725171		-2.821862		-0.353484		1.256110		1.901748		0.026424		-0.009793		0.042513		
1.165864		-26.165195		957.776470		150.402338		0.133433		0.000000		0.251931		-0.543899		19.909317		3.126417		56.046383		1201.434363		212.120660		-0.160415		0.000000		0.260266		1.759058		37.708158		6.657743		-0.512423		-0.538962		-1.720164		0.413318		1.262939		1.874241		0.038686		-0.008437		0.041744		-1.603865		-1.708688		-2.914007		-0.353497		1.256118		1.901823		0.025833		-0.007807		0.042282		
1.168591		-23.503610		952.643192		148.937352		0.132373		0.000000		0.253524		-0.486629		19.723937		3.083664		58.392501		1217.303586		203.209352		-0.159442		0.000000		0.262820		1.763583		36.765455		6.137445		-0.390512		-0.579990		-1.736477		0.413305		1.262945		1.874300		0.037313		-0.009023		0.040828		-1.651421		-1.697425		-2.987789		-0.353510		1.256125		1.901888		0.025702		-0.006155		0.041997		
1.171318		-20.596556		946.634082		148.055998		0.131313		0.000000		0.254951		-0.425986		19.578636		3.062149		61.343244		1226.289696		197.202108		-0.158782		0.000000		0.264945		1.813976		36.262676		5.831489		-0.237223		-0.617975		-1.743245		0.413288		1.262951		1.874355		0.035871		-0.009580		0.039426		-1.702754		-1.692407		-3.041504		-0.353523		1.256132		1.901943		0.025969		-0.004737		0.041487		
1.174045		-17.490060		939.893088		147.551322		0.130257		0.000000		0.256222		-0.362288		19.468870		3.056366		64.739184		1228.362611		194.141985		-0.158378		0.000000		0.266657		1.908307		36.208227		5.722688		-0.066100		-0.647892		-1.741688		0.413268		1.262956		1.874406		0.034459		-0.010143		0.037708		-1.749598		-1.693681		-3.076361		-0.353537		1.256138		1.901986		0.026530		-0.003439		0.040616		
1.176773		-14.244344		932.646757		147.163282		0.129216		0.000000		0.257361		-0.296139		19.389796		3.059537		68.362354		1223.956674		193.783781		-0.158174		0.000000		0.267995		2.041779		36.555558		5.787694		0.108381		-0.665273		-1.733490		0.413243		1.262961		1.874452		0.033180		-0.010730		0.035860		-1.783145		-1.700446		-3.094953		-0.353552		1.256145		1.902016		0.027273		-0.002188		0.039302		
1.179500		-10.933399		925.216430		146.586410		0.128203		0.000000		0.258406		-0.228494		19.335801		3.063462		71.956928		1214.125855		195.542187		-0.158103		0.000000		0.269033		2.204687		37.199588		5.991215		0.272728		-0.667172		-1.721034		0.413215		1.262963		1.874491		0.032133		-0.011345		0.034074		-1.795707		-1.711110		-3.100444		-0.353568		1.256153		1.902034		0.028084		-0.000980		0.037554		
1.182227		-7.636191		917.981630		145.485140		0.127241		0.000000		0.259410		-0.160557		19.301811		3.059022		75.256828		1200.143012		198.682032		-0.158100		0.000000		0.269854		2.383455		38.009062		6.292405		0.415939		-0.651841		-1.707156		0.413186		1.262964		1.874522		0.031407		-0.011979		0.032514		-1.781087		-1.723875		-3.094718		-0.353586		1.256160		1.902039		0.028869		0.000112		0.035453		
1.184955		-4.432776		911.333184		143.546427		0.126352		0.000000		0.260432		-0.093788		19.282034		3.037162		78.018533		1183.596507		202.335665		-0.158094		0.000000		0.270559		2.559914		38.835539		6.638951		0.531565		-0.619858		-1.695100		0.413156		1.262963		1.874544		0.031045		-0.012621		0.031282		-1.737130		-1.736970		-3.078633		-0.353607		1.256168		1.902033		0.029561		0.000967		0.033159		
1.187682		-1.403276		905.638715		140.476321		0.125563		0.000000		0.261526		-0.029857		19.270897		2.989163		80.017551		1166.011236		205.678968		-0.158011		0.000000		0.271237		2.713475		39.540282		6.974770		0.616738		-0.573202		-1.688058		0.413127		1.262958		1.874553		0.031056		-0.013266		0.030408		-1.664988		-1.749077		-3.051717		-0.353628		1.256176		1.902015		0.030126		0.001457		0.030869		
1.190409		1.379481		901.155092		136.076359		0.124894		0.000000		0.262734		0.029487		19.261654		2.908550		81.093559		1148.801279		208.012893		-0.157780		0.000000		0.271969		2.824375		40.011034		7.244798		0.673026		-0.515759		-1.688381		0.413099		1.262949		1.874552		0.031390		-0.013909		0.029825		-1.570729		-1.759513		-3.013527		-0.353650		1.256183		1.901987		0.030569		0.001499		0.028795		
1.193136		3.845230		898.014364		130.231262		0.124364		0.000000		0.264077		0.082408		19.245471		2.791003		81.137003		1133.114064		208.818438		-0.157343		0.000000		0.272811		2.876187		40.167204		7.402309		0.704340		-0.452393		-1.697004		0.413073		1.262938		1.874541		0.031970		-0.014546		0.029394		-1.463886		-1.768227		-2.964060		-0.353673		1.256189		1.901949		0.030932		0.001068		0.027128		
1.195864		5.936411		896.162269		122.960606		0.123981		0.000000		0.265551		0.127259		19.211173		2.635927		80.118868		1119.746681		207.810535		-0.156668		0.000000		0.273792		2.859752		39.968093		7.417563		0.716269		-0.388708		-1.712719		0.413050		1.262923		1.874519		0.032697		-0.015153		0.028929		-1.356660		-1.775723		-2.904451		-0.353696		1.256194		1.901902		0.031282		0.000208		0.026010		
1.198591		7.611260		895.361219		114.409946		0.123742		0.000000		0.267126		0.162762		19.146816		2.446599		78.077048		1109.127734		204.921238		-0.155753		0.000000		0.274913		2.774069		39.407143		7.280826		0.714420		-0.330513		-1.732167		0.413029		1.262905		1.874487		0.033473		-0.015675		0.028232		-1.261851		-1.782858		-2.836713		-0.353718		1.256198		1.901849		0.031679		-0.001004		0.025513		
1.201318		8.849303		895.197472		104.846897		0.123637		0.000000		0.268751		0.188236		19.042072		2.230248		75.106669		1101.337281		200.272677		-0.154629		0.000000		0.276148		2.626004		38.506531		7.002245		0.703477		-0.283456		-1.750316		0.413013		1.262885		1.874447		0.034214		-0.016029		0.027142		-1.190994		-1.790628		-2.763286		-0.353738		1.256199		1.901790		0.032161		-0.002491		0.025647		
1.204045		9.658765		895.108993		94.651414		0.123649		0.000000		0.270361		0.203839		18.890474		1.997539		71.356667		1096.122946		194.153513		-0.153353		0.000000		0.277450		2.429167		37.314711		6.609480		0.686781		-0.252362		-1.761649		0.413001		1.262864		1.874399		0.034857		-0.016113		0.025566		-1.152130		-1.799909		-2.686625		-0.353755		1.256198		1.901726		0.032716		-0.004209		0.026354		
1.206773		10.063536		894.436962		84.269258		0.123758		0.000000		0.271883		0.210270		18.688650		1.760768		66.998589		1093.033052		186.929792		-0.151997		0.000000		0.278762		2.200138		35.892848		6.138451		0.666226		-0.241090		-1.761355		0.412992		1.262842		1.874345		0.035357		-0.015819		0.023489		-1.149034		-1.811297		-2.608980		-0.353773		1.256194		1.901660		0.033277		-0.006163		0.027542		
